# xmcd CD database file
#
# Track frame offsets:
#	187
#	15532
#	32222
#	47450
#	68637
#	86467
#	110102
#	126235
#	138360
#	165645
#	179987
#	202290
#	217525
#	234415
#	270505
#	284747
#
# Disc length: 3957 seconds
#
# Revision: 0
# Processed by: cddbd v1.5.1PL2 Copyright (c) Steve Scherf et al.
# Submitted via: CDex 1.51
#
DISCID=ec0f7310
DTITLE=Kid Thomas Valentine - Kid Thomas Valentine's Creole Jazz Band
DYEAR=1993
DGENRE=Jazz
TTITLE0=Panama
TTITLE1=Mama Inez
TTITLE2=Just A Closer Walk With Thee
TTITLE3=I Can't Escape From You
TTITLE4=I Believe I Can Make It By Myself
TTITLE5=On A Coconut Island
TTITLE6=Eh La Bas
TTITLE7=When My Dreamboat Comes Home
TTITLE8=Stingaree Blues
TTITLE9=Maryland My Maryland
TTITLE10=What Am I Living For?
TTITLE11=Siboney
TTITLE12=St. Louis Blues
TTITLE13=Confessin'
TTITLE14=Maryland My Maryland #2
TTITLE15=Saints
EXTD=YEAR: 1993
EXTT0=
EXTT1=
EXTT2=
EXTT3=
EXTT4=
EXTT5=
EXTT6=
EXTT7=
EXTT8=
EXTT9=
EXTT10=
EXTT11=
EXTT12=
EXTT13=
EXTT14=
EXTT15=
PLAYORDER=
